HIERARCHY
ROOT ui
{
	 OFFSET 0 0 0
	 CHANNELS 3 XPosition YPosition Z Position
	 EndSite
	 {
	 OFFSET 0 -1 0
	 }
}
ROOT li
{
	 OFFSET 0 0 0
	 CHANNELS 3 XPosition YPosition Z Position
	 EndSite
	 {
	 OFFSET 0 -1 0
	 }
}
ROOT ul
{
	 OFFSET 0 0 0
	 CHANNELS 3 XPosition YPosition Z Position
	 EndSite
	 {
	 OFFSET 0 -1 0
	 }
}
ROOT ll
{
	 OFFSET 0 0 0
	 CHANNELS 3 XPosition YPosition Z Position
	 EndSite
	 {
	 OFFSET 0 -1 0
	 }
}
ROOT tt
{
	 OFFSET 0 0 0
	 CHANNELS 3 XPosition YPosition Z Position
	 EndSite
	 {
	 OFFSET 0 -1 0
	 }
}
ROOT tb
{
	 OFFSET 0 0 0
	 CHANNELS 3 XPosition YPosition Z Position
	 EndSite
	 {
	 OFFSET 0 -1 0
	 }
}
ROOT td
{
	 OFFSET 0 0 0
	 CHANNELS 3 XPosition YPosition Z Position
	 EndSite
	 {
	 OFFSET 0 -1 0
	 }
}
ROOT v
{
	 OFFSET 0 0 0
	 CHANNELS 3 XPosition YPosition Z Position
	 EndSite
	 {
	 OFFSET 0 -1 0
	 }
}
ROOT bn
{
	 OFFSET 0 0 0
	 CHANNELS 3 XPosition YPosition Z Position
	 EndSite
	 {
	 OFFSET 0 -1 0
	 }
}
MOTION
Frames: 13
Frame Time: 0.002
-2.3187699913978577E-4	5.709400027990341E-5	0		0.4815245666503906	-2.440280517578125	0		-1.0568663330078125	-0.10643081665039063	0		-0.728704345703125	-2.34729736328125	0		1.3011680908203125	-0.9391671142578125	0		2.896041015625	-0.19951234436035156	0		4.45420263671875	0.01482988452911377	0		5.5762333984375	-0.041179351806640625	0		0.03965047836303711	5.96464892578125	0		
0.072978271484375	5.651410222053528E-4	0		0.4942284851074219	-2.43235546875	0		-1.0654881591796874	-0.09825897216796875	0		-0.791773681640625	-2.327864013671875	0		1.2886431884765626	-0.9315721435546875	0		2.902804931640625	-0.17411624145507812	0		4.465625	0.026339651107788086	0		5.5694248046875	-0.040109375	0		0.0462303581237793	5.97562109375	0		
0.06318889236450195	-0.0020783870220184328	0		0.4817077331542969	-2.438870361328125	0		-1.049247314453125	-0.10064098358154297	0		-0.7185064086914063	-2.3444560546875	0		1.2820552978515625	-0.9311045532226563	0		2.853918701171875	-0.18148680114746094	0		4.45165673828125	0.016428564071655275	0		5.56270654296875	-0.039015583038330075	0		0.02246015167236328	5.9682607421875	0		
0.05663665771484375	-0.0017932989597320556	0		0.47551492309570315	-2.4385234375	0		-1.0828004150390624	-0.10093001556396484	0		-0.8064096069335938	-2.32949853515625	0		1.263905029296875	-0.9183804321289063	0		2.864366943359375	-0.18216116333007812	0		4.4409716796875	0.011449732780456544	0		5.5462275390625	-0.03470163345336914	0		-0.11744355010986328	5.94842822265625	0		
0.046236328125	-0.005427547931671143	0		0.4716198425292969	-2.435228515625	0		-1.0832103271484375	-0.1059468994140625	0		-0.7666129760742187	-2.340341796875	0		1.2577239990234375	-0.9179265747070312	0		2.85397119140625	-0.1863863525390625	0		4.42465771484375	0.012583090782165527	0		5.54985009765625	-0.036840557098388675	0		-0.1246244125366211	5.94868115234375	0		
0.04429768753051758	-0.0012463380098342895	0		0.4259700927734375	-2.4330380859375	0		-1.0910472412109375	-0.097796875	0		-0.7933236083984375	-2.3407353515625	0		1.2490452880859375	-0.9074246826171875	0		2.850166259765625	-0.17676646423339842	0		4.4124814453125	0.0066010718345642086	0		5.54383056640625	-0.03579454040527344	0		-0.11625603485107422	5.95959912109375	0		
0.03860321426391602	-9.876580238342284E-4	0		0.4646592712402344	-2.4306708984375	0		-1.1007918701171875	-0.10060565948486327	0		-0.7735997314453125	-2.336126708984375	0		1.2434736328125	-0.9070028076171875	0		2.82530712890625	-0.18471858215332032	0		4.40193701171875	0.014557097434997559	0		5.53648388671875	-0.018751548767089843	0		0.009661363601684571	5.97800390625	0		
0.03326785278320313	-7.397789955139161E-4	0		0.4218369140625	-2.42056103515625	0		-1.1061143798828126	-0.10050446319580078	0		-0.7884619140625	-2.327772216796875	0		1.2323839111328125	-0.900473388671875	0		2.849137939453125	-0.17773095703125	0		4.4083203125	0.0021141579151153565	0		5.53697900390625	-0.02592182159423828	0		-0.01067473316192627	5.967548828125	0		
0.028311058044433592	-5.029159784317017E-4	0		0.4410618896484375	-2.4257841796875	0		-1.1110592041015626	-0.10040556335449219	0		-0.82127880859375	-2.33404052734375	0		1.2127510986328125	-0.8897760620117188	0		2.810955810546875	-0.18845184326171874	0		4.3882392578125	-0.002800323009490967	0		5.5261962890625	-0.016893295288085936	0		-0.1345394744873047	5.9602802734375	0		
0.01966061592102051	-0.004191912174224853	0		0.3947561645507813	-2.425627197265625	0		-1.1097215576171875	-0.10543321228027344	0		-0.8127123413085937	-2.340182861328125	0		1.21621923828125	-0.8925845336914062	0		2.7974541015625	-0.18572352600097655	0		4.38367236328125	-0.0020834479331970214	0		5.521630859375	-0.016048271179199217	0		-0.1871464385986328	5.9434814453125	0		
0.0226329402923584	0.0028747549057006835	0		0.4488219299316406	-2.426588623046875	0		-1.101677001953125	-0.09558917999267579	0		-0.810518310546875	-2.334181396484375	0		1.21547314453125	-0.8763118896484375	0		2.795964111328125	-0.20127972412109374	0		4.3843310546875	-0.00951869010925293	0		5.52160498046875	-0.008347757339477539	0		-0.011179789543151856	5.97789501953125	0		
0.01578979206085205	1.4360499382019042E-4	0		0.420381591796875	-2.420822021484375	0		-1.1154049072265626	-0.09328238677978516	0		-0.7879577026367187	-2.3285986328125	0		1.19902880859375	-0.8637241821289062	0		2.8178642578125	-0.16933860778808593	0		4.38055078125	-0.00889804458618164	0		5.5319677734375	-9.124320149421692E-4	0		-0.14698077392578124	5.9578349609375	0		
0.01239450454711914	3.3956700563430784E-4	0		0.43021493530273436	-2.419861083984375	0		-1.126935791015625	-0.10001718139648437	0		-0.8399735717773438	-2.31945654296875	0		1.193646728515625	-0.866383056640625	0		2.7740146484375	-0.19106301879882812	0		4.36919970703125	-0.006156530857086182	0		5.52442822265625	-0.007151865005493164	0		-0.03464950180053711	5.9686044921875	0		
